<svg width="19" height="18" viewBox="0 0 19 18" fill="none" xmlns="http://www.w3.org/2000/svg">
<g clip-path="url(#clip0_780_3600)">
<path d="M17.3442 6.8235L16.25 5.775V3C16.25 1.3455 14.9045 0 13.25 0H5.75C4.0955 0 2.75 1.3455 2.75 3V5.775L1.65575 6.82275C0.9215 7.52625 0.5 8.51325 0.5 9.53025V14.25C0.5 16.3177 2.18225 18 4.25 18H14.75C16.8177 18 18.5 16.3177 18.5 14.25V9.53025C18.5 8.51325 18.0785 7.52625 17.3442 6.8235ZM5.75 1.5H13.25C14.0773 1.5 14.75 2.17275 14.75 3V9.1815L11.0907 12.8407C10.241 13.6905 8.759 13.6905 7.90925 12.8407L4.25 9.1815V3C4.25 2.17275 4.92275 1.5 5.75 1.5ZM17 14.25C17 15.4905 15.9905 16.5 14.75 16.5H4.25C3.0095 16.5 2 15.4905 2 14.25V9.53025C2 9.384 2.0165 9.23925 2.04425 9.0975L6.84875 13.902C7.556 14.61 8.498 15.0007 9.5 15.0007C10.502 15.0007 11.444 14.61 12.1512 13.902L16.9557 9.0975C16.9835 9.23925 17 9.38475 17 9.53025V14.25ZM5.98925 7.152C5.68625 6.87 5.66825 6.39525 5.95025 6.09225C6.233 5.7885 6.7085 5.77275 7.01 6.05325L8.39825 7.344C8.6 7.545 8.89775 7.54575 9.0815 7.362L11.9788 4.569C12.2773 4.281 12.752 4.29075 13.0392 4.58775C13.3272 4.8855 13.3183 5.361 13.0205 5.64825L10.1322 8.43225C9.75425 8.81025 9.254 8.99925 8.753 8.99925C8.24825 8.99925 7.742 8.80725 7.35725 8.42325L5.98925 7.15125V7.152Z" fill="black"/>
</g>
<defs>
<clipPath id="clip0_780_3600">
<rect width="18" height="18" fill="white" transform="translate(0.5)"/>
</clipPath>
</defs>
</svg>
